<?xml version="1.0" encoding="utf-8"?>
<!-- Generator: Adobe Illustrator 21.0.2, SVG Export Plug-In . SVG Version: 6.00 Build 0)  -->
<svg version="1.1" id="Layer_1" xmlns="http://www.w3.org/2000/svg" xmlns:xlink="http://www.w3.org/1999/xlink" x="0px" y="0px"
	 viewBox="0 0 440 270" style="enable-background:new 0 0 440 270;" xml:space="preserve">
<style type="text/css">
	.st0{fill:#C7DBEA;}
	.st1{fill:#E3EEF9;}
	.st2{fill:#9BABB8;}
</style>
<rect x="0.3" y="0.8" class="st0" width="440" height="270"/>
<circle class="st1" cx="220" cy="135" r="85"/>
<g>
	<g>
		<g>
			<path class="st2" d="M225.9,129.7c0.2,0.5,0.7,0.7,1.2,0.7c0.2,0,0.4,0,0.6-0.1c0.1,0,8.1-4.1,12-5.3c0.7-0.2,1.1-1,0.9-1.7
				c-0.2-0.7-1-1.1-1.7-0.9c-4.2,1.3-12.1,5.3-12.4,5.5C225.8,128.2,225.6,129,225.9,129.7z"/>
			<path class="st2" d="M227.1,114.1c0.2,0,0.4,0,0.6-0.1c0.1,0,8.1-4.1,12-5.3c0.7-0.2,1.1-1,0.9-1.7c-0.2-0.7-1-1.1-1.7-0.9
				c-4.2,1.3-12.1,5.3-12.4,5.5c-0.7,0.3-0.9,1.2-0.6,1.8C226.1,113.9,226.6,114.1,227.1,114.1z"/>
			<path class="st2" d="M259.7,111.4c-0.8,0-1.4,0.6-1.4,1.4v52.9c0,2.2-1.8,4.1-4.1,4.1h-32.6v-3.1c2-0.7,7.1-2.3,12.2-2.3
				c11.8,0,19.9,2.6,19.9,2.6c0.4,0.1,0.9,0.1,1.2-0.2c0.4-0.3,0.6-0.7,0.6-1.1V106c0-0.6-0.4-1.2-1.1-1.3c0,0-1.1-0.2-2.9-0.6
				c-0.7-0.1-1.4,0.4-1.6,1.1c-0.1,0.7,0.4,1.4,1.1,1.6c0.7,0.1,1.3,0.2,1.7,0.3v56.8c-3.1-0.8-9.9-2.3-19-2.3
				c-5.9,0-11.7,1.9-13.5,2.6c-1.6-0.7-6.4-2.6-12.3-2.6c-9.3,0-17.1,1.5-20.4,2.3V107c2.7-0.7,10.7-2.4,20.4-2.4
				c4.9,0,9.2,1.5,10.9,2.2v53.4c0,0.5,0.3,0.9,0.7,1.2c0.4,0.2,0.9,0.2,1.4,0c0.1-0.1,13.6-8.1,25.5-12.1c0.6-0.2,0.9-0.7,0.9-1.3
				V92.4c0-0.4-0.2-0.9-0.6-1.1c-0.4-0.3-0.8-0.3-1.3-0.2c-10.9,4.1-21.8,10.9-22,11c-0.6,0.4-0.8,1.2-0.4,1.9
				c0.4,0.6,1.2,0.8,1.9,0.4c0.1-0.1,9.7-6,19.6-10v52.7c-9.3,3.2-18.9,8.5-23.1,10.8V106c0-0.5-0.3-1-0.8-1.2
				c-0.2-0.1-5.8-2.9-12.8-2.9c-12.3,0-21.7,2.7-22.1,2.8c-0.6,0.2-1,0.7-1,1.3v59.7c0,0.4,0.2,0.8,0.5,1.1c0.2,0.2,0.5,0.3,0.8,0.3
				c0.1,0,0.2,0,0.4-0.1c0.1,0,9.5-2.7,21.3-2.7c5,0,9.2,1.5,10.9,2.2v3.2h-32.6c-2.2,0-4.1-1.8-4.1-4.1v-52.9
				c0-0.7-0.6-1.4-1.4-1.4c-0.7,0-1.4,0.6-1.4,1.4v52.9c0,3.7,3,6.8,6.8,6.8h67.9c3.7,0,6.8-3,6.8-6.8v-52.9
				C261,112,260.4,111.4,259.7,111.4z"/>
			<path class="st2" d="M225.9,121.5c0.2,0.5,0.7,0.7,1.2,0.7c0.2,0,0.4,0,0.6-0.1c0.1,0,8.1-4.1,12-5.3c0.7-0.2,1.1-1,0.9-1.7
				c-0.2-0.7-1-1.1-1.7-0.9c-4.2,1.3-12.1,5.3-12.4,5.5C225.8,120.1,225.6,120.9,225.9,121.5z"/>
			<path class="st2" d="M225.9,137.8c0.2,0.5,0.7,0.7,1.2,0.7c0.2,0,0.4,0,0.6-0.1c0.1,0,8.1-4.1,12-5.3c0.7-0.2,1.1-1,0.9-1.7
				c-0.2-0.7-1-1.1-1.7-0.9c-4.2,1.3-12.1,5.3-12.4,5.5C225.8,136.3,225.6,137.2,225.9,137.8z"/>
			<path class="st2" d="M212.5,116.3c-8.4-2-17.9,0.5-18.3,0.6c-0.7,0.2-1.2,0.9-1,1.7c0.2,0.6,0.7,1,1.3,1c0.1,0,0.2,0,0.4,0
				c0.1,0,9.3-2.4,17-0.6c0.7,0.2,1.5-0.3,1.6-1C213.7,117.2,213.2,116.4,212.5,116.3z"/>
			<path class="st2" d="M212.5,124.4c-8.4-2-17.9,0.5-18.3,0.6c-0.7,0.2-1.2,0.9-1,1.7c0.2,0.6,0.7,1,1.3,1c0.1,0,0.2,0,0.4,0
				c0.1,0,9.3-2.4,17-0.6c0.7,0.2,1.5-0.3,1.6-1C213.7,125.3,213.2,124.6,212.5,124.4z"/>
			<path class="st2" d="M225.9,146c0.2,0.5,0.7,0.7,1.2,0.7c0.2,0,0.4,0,0.6-0.1c0.1,0,8.1-4.1,12-5.3c0.7-0.2,1.1-1,0.9-1.7
				c-0.2-0.7-1-1.1-1.7-0.9c-4.2,1.3-12.1,5.3-12.4,5.5C225.8,144.5,225.6,145.3,225.9,146z"/>
			<path class="st2" d="M212.5,132.5c-8.4-2-17.9,0.5-18.3,0.6c-0.7,0.2-1.2,0.9-1,1.7c0.2,0.6,0.7,1,1.3,1c0.1,0,0.2,0,0.4,0
				c0.1,0,9.3-2.4,17-0.6c0.7,0.2,1.5-0.3,1.6-1C213.7,133.4,213.2,132.7,212.5,132.5z"/>
			<path class="st2" d="M212.5,148.8c-8.4-2-17.9,0.5-18.3,0.6c-0.7,0.2-1.2,0.9-1,1.7c0.2,0.6,0.7,1,1.3,1c0.1,0,0.2,0,0.4,0
				c0.1,0,9.3-2.4,17-0.6c0.7,0.2,1.5-0.3,1.6-1C213.7,149.7,213.2,149,212.5,148.8z"/>
			<path class="st2" d="M212.5,140.7c-8.4-2-17.9,0.5-18.3,0.6c-0.7,0.2-1.2,0.9-1,1.7c0.2,0.6,0.7,1,1.3,1c0.1,0,0.2,0,0.4,0
				c0.1,0,9.3-2.4,17-0.6c0.7,0.2,1.5-0.3,1.6-1C213.7,141.6,213.2,140.9,212.5,140.7z"/>
		</g>
	</g>
</g>
</svg>
